<?xml version="1.0" encoding="UTF-8"?>
<svg xmlns="http://www.w3.org/2000/svg" viewBox="0 0 200 200" width="200" height="200">


  <rect width="200" height="200" fill="#EDE7F6" rx="12"/>
  
  <rect x="35" y="50" width="130" height="80" rx="6" fill="#D1C4E9" stroke="#4527A0" stroke-width="2"/>
  <!-- screen -->
  <rect x="45" y="58" width="60" height="35" rx="3" fill="#1A237E"/>
  <polyline points="50,85 58,72 66,80 74,65 82,78 90,70 98,75" fill="none" stroke="#69F0AE" stroke-width="1.5"/>
  <!-- LEDs -->
  <circle cx="120" cy="65" r="4" fill="#4CAF50"/>
  <circle cx="135" cy="65" r="4" fill="#FFC107"/>
  <circle cx="150" cy="65" r="4" fill="#F44336"/>
  <!-- ports -->
  <rect x="115" y="85" width="12" height="8" rx="1" fill="#7E57C2"/>
  <rect x="132" y="85" width="12" height="8" rx="1" fill="#7E57C2"/>
  <rect x="149" y="85" width="12" height="8" rx="1" fill="#7E57C2"/>
  <!-- antenna -->
  <line x1="55" y1="50" x2="48" y2="30" stroke="#4527A0" stroke-width="2"/>
  <circle cx="46" cy="27" r="3" fill="#7C4DFF"/>
  <!-- ethernet -->
  <rect x="50" y="130" width="15" height="10" rx="2" fill="#B39DDB"/>
  <rect x="70" y="130" width="15" height="10" rx="2" fill="#B39DDB"/>
  <text x="100" y="120" text-anchor="middle" font-family="Arial,sans-serif" font-size="7" fill="#4527A0">SCADA PLC</text>

  <text x="100" y="188" text-anchor="middle" font-family="Arial,sans-serif" font-size="9" font-weight="bold" fill="#4527A0">SCADA Controller</text>

</svg>