<?xml version="1.0" encoding="UTF-8"?>
<svg xmlns="http://www.w3.org/2000/svg" viewBox="0 0 200 200" width="200" height="200">


  <rect width="200" height="200" fill="#ECEFF1" rx="12"/>
  <!-- tower sections -->
  <polygon points="80,175 120,175 115,120 85,120" fill="#CFD8DC" stroke="#37474F" stroke-width="1.5"/>
  <line x1="84" y1="125" x2="116" y2="125" stroke="#37474F" stroke-width="0.8" stroke-dasharray="3,2"/>
  <polygon points="85,120 115,120 112,65 88,65" fill="#B0BEC5" stroke="#37474F" stroke-width="1.5"/>
  <line x1="87" y1="70" x2="113" y2="70" stroke="#37474F" stroke-width="0.8" stroke-dasharray="3,2"/>
  <polygon points="88,65 112,65 108,25 92,25" fill="#90A4AE" stroke="#37474F" stroke-width="1.5"/>
  <!-- flanges -->
  <rect x="82" y="118" width="36" height="5" rx="1" fill="#78909C" stroke="#37474F" stroke-width="1"/>
  <rect x="86" y="63" width="28" height="5" rx="1" fill="#78909C" stroke="#37474F" stroke-width="1"/>
  <!-- bolts -->
  <circle cx="87" cy="120" r="1.5" fill="#37474F"/>
  <circle cx="113" cy="120" r="1.5" fill="#37474F"/>
  <circle cx="90" cy="65" r="1.5" fill="#37474F"/>
  <circle cx="110" cy="65" r="1.5" fill="#37474F"/>
  <!-- height label -->
  <text x="145" y="100" font-family="Arial,sans-serif" font-size="8" fill="#37474F">105-118m</text>
  <line x1="135" y1="28" x2="135" y2="172" stroke="#546E7A" stroke-width="0.5"/>
  <text x="100" y="192" text-anchor="middle" font-family="Arial,sans-serif" font-size="11" font-weight="bold" fill="#37474F">Tower Assembly</text>

</svg>