<?xml version="1.0" encoding="UTF-8"?>
<svg xmlns="http://www.w3.org/2000/svg" viewBox="0 0 200 200" width="200" height="200">


  <defs>
    <linearGradient id="sky2" x1="0" y1="0" x2="0" y2="1">
      <stop offset="0%" stop-color="#6CB4EE"/>
      <stop offset="100%" stop-color="#D6EEFF"/>
    </linearGradient>
  </defs>
  <rect width="200" height="200" fill="url(#sky2)" rx="12"/>
  <rect x="0" y="170" width="200" height="30" fill="#4682B4" rx="0 0 12 12"/>
  <!-- waves (offshore) -->
  <path d="M0,172 Q25,168 50,172 T100,172 T150,172 T200,172" fill="none" stroke="#5F9EA0" stroke-width="1.5"/>
  <path d="M0,176 Q25,172 50,176 T100,176 T150,176 T200,176" fill="none" stroke="#5F9EA0" stroke-width="1"/>
  <!-- tower -->
  <polygon points="95,170 105,170 103,48 97,48" fill="#E8E8E8" stroke="#999" stroke-width="1"/>
  <!-- larger nacelle (direct drive) -->
  <rect x="85" y="38" width="30" height="16" rx="4" fill="#C8D0D8" stroke="#777" stroke-width="1"/>
  <!-- hub -->
  <circle cx="100" cy="44" r="6" fill="#A8B0B8" stroke="#777" stroke-width="1"/>
  <!-- blades (longer - 85m) -->
  <ellipse cx="100" cy="10" rx="4.5" ry="32" fill="#F8F8F8" stroke="#AAA" stroke-width="0.8" transform="rotate(15,100,44)"/>
  <ellipse cx="100" cy="10" rx="4.5" ry="32" fill="#F8F8F8" stroke="#AAA" stroke-width="0.8" transform="rotate(135,100,44)"/>
  <ellipse cx="100" cy="10" rx="4.5" ry="32" fill="#F8F8F8" stroke="#AAA" stroke-width="0.8" transform="rotate(255,100,44)"/>
  <!-- label -->
  <text x="100" y="196" text-anchor="middle" font-family="Arial,sans-serif" font-size="8" font-weight="bold" fill="#FFF">SG 5.8-170 — 5.8 MW DD</text>

</svg>