<?xml version="1.0" encoding="UTF-8"?>
<svg xmlns="http://www.w3.org/2000/svg" viewBox="0 0 200 200" width="200" height="200">


  <rect width="200" height="200" fill="#EFEBE9" rx="12"/>
  
  <!-- bolt -->
  <rect x="92" y="30" width="16" height="100" rx="2" fill="#A1887F" stroke="#4E342E" stroke-width="1.5"/>
  <!-- hex head -->
  <polygon points="88,30 112,30 115,22 109,16 91,16 85,22" fill="#8D6E63" stroke="#4E342E" stroke-width="1.5"/>
  <!-- thread -->
  <line x1="93" y1="90" x2="107" y2="90" stroke="#5D4037" stroke-width="0.5"/>
  <line x1="93" y1="95" x2="107" y2="95" stroke="#5D4037" stroke-width="0.5"/>
  <line x1="93" y1="100" x2="107" y2="100" stroke="#5D4037" stroke-width="0.5"/>
  <line x1="93" y1="105" x2="107" y2="105" stroke="#5D4037" stroke-width="0.5"/>
  <line x1="93" y1="110" x2="107" y2="110" stroke="#5D4037" stroke-width="0.5"/>
  <line x1="93" y1="115" x2="107" y2="115" stroke="#5D4037" stroke-width="0.5"/>
  <line x1="93" y1="120" x2="107" y2="120" stroke="#5D4037" stroke-width="0.5"/>
  <!-- nut -->
  <polygon points="86,130 114,130 117,138 111,144 89,144 83,138" fill="#8D6E63" stroke="#4E342E" stroke-width="1.5"/>
  <!-- washer -->
  <ellipse cx="100" cy="130" rx="18" ry="4" fill="#BCAAA4" stroke="#4E342E" stroke-width="1"/>

  <text x="100" y="188" text-anchor="middle" font-family="Arial,sans-serif" font-size="9" font-weight="bold" fill="#4E342E">Foundation Bolt Set</text>

</svg>